# xmcd
#
# Track frame offsets: 
#        150
#        10668
#        19667
#        33532
#        46196
#        59261
#        72265
#        84569
#        96770
#        107379
#        118688
#        131847
#        146125
#        158623
#        172363
#        185637
#        197058
#        207625
#        219978
#        232175
#        244388
#        255393
#        269631
#        280158
#        293787
#        306542
#        316859
#        330582
#        342938
#
# Disc length: 4723 seconds
#
# Revision: 4
# Processed by: cddbd v1.5.2PL0 Copyright (c) Steve Scherf et al.
# Submitted via: ExactAudioCopy v0.95b4
#
DISCID=be12711d
DTITLE=Slim Whitman - The Essential - 3
DYEAR=2009
DGENRE=Country
TTITLE0=Rose Marie [1955]
TTITLE1=Unchain My Heart [1957]
TTITLE2=Song Of The Old Water Wheel [1952]
TTITLE3=Secret Love [1953]
TTITLE4=That's How The Yodel Was Born [1965]
TTITLE5=China Doll  [1955]
TTITLE6=Twilla Lee [1960]
TTITLE7=My Heart Is Broken In Three [1952]
TTITLE8=Serenade [1956]
TTITLE9=Blue Eyes Crying In The Rain [1965]
TTITLE10=Love Song Of The Waterfall [1952]
TTITLE11=Indian Love Call [1955]
TTITLE12=Die Son Skyn Weer More (Sunrise) [1965]
TTITLE13=Tumbling Tumbleweeds [1956]
TTITLE14=I'll Take You Home Again, Kathleen [1957]
TTITLE15=Cattle Call [1955]
TTITLE16=Tennessee Yodel Polka [1965]
TTITLE17=Blue River [1962]
TTITLE18=Roll River Roll [1959]
TTITLE19=I'm A Fool [1956]
TTITLE20=Fluitrende Hoop (Whispering Hope) [19655]
TTITLE21=Danny Boy [1952]
TTITLE22=Curtain Of Tears [1957]
TTITLE23=The End Of The World [1952]
TTITLE24=At The End Of Nowhere [19565]
TTITLE25=Put Your Trust In Me [1959]
TTITLE26=You Have My Heart [1955]
TTITLE27=My Love Is Growing Stale [1952]
TTITLE28=I'm Casting My Lasso Towards The Sky [1956]
EXTD=YEAR: 2009
EXTT0=
EXTT1=
EXTT2=
EXTT3=
EXTT4=
EXTT5=
EXTT6=
EXTT7=
EXTT8=
EXTT9=
EXTT10=
EXTT11=
EXTT12=
EXTT13=
EXTT14=
EXTT15=
EXTT16=
EXTT17=
EXTT18=
EXTT19=
EXTT20=
EXTT21=
EXTT22=
EXTT23=
EXTT24=
EXTT25=
EXTT26=
EXTT27=
EXTT28=
PLAYORDER=
